EMG
version=1
nRows=13
nColumns=17
inDegrees=no
endheader
time	_right_gast_med	_right_glut_max	_left_gast_med	_left_glut_max	_right_glut_med	_right_bic_fem	_right_rect_fem	_right_vast_lat	_right_vast_med	_right_tens_fasc_lat	_left_glut_med	_left_bic_fem	_left_rect_fem	_left_vast_lat	_left_vast_med	_left_tens_fasc_lat
      1.65000000	      0.49342468	     -0.03686377	      0.03717538	      0.00520667	      0.02542034	      0.00341062	      0.00102892	     -0.00105472	      0.01572156	      0.01199703	      0.00471929	      0.00350940	      0.01512290	     -0.02192489	     -0.01184154	      0.01384736
      1.66000000	      1.36986589	     -0.08406594	      0.03718882	     -0.00210390	      0.01931277	      0.01242271	     -0.00087526	      0.01272252	      0.01002268	      0.00208171	      0.00146736	     -0.01052384	      0.01735908	     -0.03576620	     -0.03938321	      0.00485957
      1.67000000	      0.43222138	     -0.07511756	      0.01358493	      0.00551394	      0.01693970	      0.01165811	      0.00350898	      0.01561865	      0.00613103	     -0.00135582	      0.00474550	     -0.00706665	      0.02052381	     -0.03224135	     -0.03657949	     -0.00723694
      1.68000000	      0.04133523	     -0.07936886	      0.00012986	      0.01717694	      0.01517500	      0.00512738	      0.00731647	      0.01286568	      0.00805288	     -0.00503243	      0.01341496	      0.00672649	      0.02365298	     -0.02320938	     -0.02045699	     -0.01336136
      1.69000000	      0.05989368	     -0.14722851	     -0.01041427	      0.04282922	      0.01643755	      0.00543800	      0.00660335	      0.01218852	      0.01060768	     -0.00752690	      0.00985136	      0.00000151	      0.02225855	     -0.01411374	     -0.00145091	     -0.00534681
      1.70000000	      0.01210736	     -0.07664328	     -0.01018023	      0.04940622	      0.01550644	      0.00859594	      0.00560186	      0.01880649	     -0.00489767	     -0.00245314	     -0.00072772	     -0.01777377	      0.01716608	     -0.00409956	      0.01856298	      0.00746155
      1.71000000	     -0.39291203	      0.15674785	      0.00402055	      0.05423457	      0.01345304	      0.00426987	      0.00657347	      0.03655661	     -0.03666906	      0.00610470	     -0.00445140	     -0.02844712	      0.01451692	     -0.00354320	      0.02312023	      0.01440662
      1.72000000	     -0.33238640	      0.25191250	      0.00962585	      0.05668224	      0.00645589	      0.01755458	      0.00748346	      0.04836822	     -0.04368798	      0.01317168	     -0.00483057	     -0.01845709	      0.00976835	     -0.00671084	      0.01417818	      0.02069189
      1.73000000	      0.00739414	      0.19203274	      0.00740723	      0.02859279	     -0.00561706	      0.03275151	      0.00944237	      0.04296430	     -0.04043218	      0.01777719	     -0.00549871	     -0.01667431	      0.00216841	      0.00210171	      0.01334281	      0.02202182
      1.74000000	      0.15408649	      0.09550491	      0.01042225	     -0.00075951	      0.00077869	      0.02022948	      0.00853466	      0.02369554	     -0.04310557	      0.01444124	     -0.00245346	     -0.01313886	      0.00634548	      0.02086857	      0.01533408	      0.02104644
      1.75000000	     -0.09205531	      0.03624531	      0.00832906	     -0.01818119	      0.00732528	      0.01765313	      0.00774611	      0.02406436	     -0.03334543	      0.00875860	     -0.00106878	      0.00507902	      0.01751766	      0.03293376	      0.01213870	      0.01918454
      1.76000000	     -0.12844796	      0.01330692	      0.00429223	     -0.04239473	     -0.00009622	      0.01335969	      0.01379331	      0.01508980	     -0.00525868	      0.00227262	     -0.00197021	      0.02631988	      0.01473308	      0.03922145	      0.02016404	      0.01468190
      1.77000000	      0.39384189	      0.00737927	      0.00209776	     -0.05554058	      0.00096039	      0.01351398	      0.01824284	     -0.00992679	      0.03120379	     -0.00139643	      0.00200635	      0.03331992	      0.00600127	      0.02620329	      0.01822499	      0.01736103
